#!OML:ASF I:\Actors\actors\Patient Classification 2\Patient 1\Session 1\actor1.ASF
:FULLY-SPECIFIED
:DEGREES
480
root -0.53496 18.6542 5.74013 -0.282238 0.333609 -1.17479
lowerback 5.68537 1.42995 -0.884113
upperback -3.11344 1.88928 0.826765
thorax -6.49449 0.989523 1.14603
lowerneck -7.56025 -3.39813 -3.87312
upperneck 43.5742 -4.95825 1.55176
head 17.4584 -2.46294 0.6219
rclavicle -6.79906e-015 -1.34677e-014
rhumerus -71.165 43.3184 -117.025
rradius 92.6943
rwrist -42.7708
rhand 9.86955 -58.474
rfingers 7.12502
rthumb 35.0026 -85.0294
lclavicle -6.79906e-015 -1.34677e-014
lhumerus -63.8124 -47.915 121.169
lradius 85.2728
lwrist 63.2385
lhand 14.0999 5.21165
lfingers 7.12502
lthumb 39.0037 30.7306
rfemur 0 0 0
rtibia 0
rfoot 0 0
rtoes 0
lfemur -2.33176 -5.44176 -13.6229
ltibia 22.064
lfoot -23.9242 15.7246
ltoes -55.4642
481
root -0.536408 18.6563 5.74023 -0.272892 0.341236 -1.22627
lowerback 5.68953 1.42518 -0.896678
upperback -3.1034 1.88451 0.871916
thorax -6.48821 0.988751 1.20076
lowerneck -7.61503 -3.36056 -3.83476
upperneck 43.473 -4.86809 1.47118
head 17.403 -2.42948 0.591897
rclavicle 9.73113e-015 -1.69712e-014
rhumerus -71.1055 43.28 -116.972
rradius 92.7624
rwrist -40.4877
rhand 8.88458 -57.6341
rfingers 7.12502
rthumb 34.0677 -84.4029
lclavicle 9.73113e-015 -1.69712e-014
lhumerus -63.5425 -48.0974 120.968
lradius 84.9131
lwrist 63.2514
lhand 14.378 5.10859
lfingers 7.12502
lthumb 39.2658 30.552
rfemur 0 0 0
rtibia 0
rfoot 0 0
rtoes 0
lfemur -2.38274 -5.38122 -13.5591
ltibia 22.1252
lfoot -23.8189 15.7711
ltoes -55.6599
482
root -0.53898 18.6592 5.74144 -0.227629 0.303404 -1.33464
lowerback 5.61599 1.42576 -0.819234
upperback -3.09478 1.89266 0.881886
thorax -6.43467 0.989488 1.1687
lowerneck -7.6925 -3.32025 -3.82494
upperneck 43.4011 -4.84071 1.56246
head 17.3823 -2.40419 0.635089
rclavicle -1.75163e-014 -2.57302e-014
rhumerus -70.8373 43.2586 -116.887
rradius 92.8175
rwrist -38.3216
rhand 8.04855 -56.7847
rfingers 7.12502
rthumb 33.2732 -83.7268
lclavicle -1.75163e-014 -2.57302e-014
lhumerus -63.1913 -48.3241 120.714
lradius 84.3653
lwrist 62.8668
lhand 14.665 4.84515
lfingers 7.12502
lthumb 39.5362 30.2094
rfemur 0 0 0
rtibia 0
rfoot 0 0
rtoes 0
lfemur -2.46651 -5.24474 -13.4157
ltibia 22.1902
lfoot -23.7575 15.7372
ltoes -55.761
483
root -0.541997 18.6629 5.74097 -0.15227 0.268847 -1.40941
lowerback 5.51681 1.42713 -0.756509
upperback -3.08684 1.89881 0.862069
thorax -6.36647 0.989186 1.11468
lowerneck -7.75114 -3.30955 -3.8903
upperneck 43.2683 -4.88342 1.75711
head 17.3315 -2.40724 0.727861
rclavicle 4.06338e-014 -1.04362e-015
rhumerus -70.4872 43.2969 -116.849
rradius 92.7656
rwrist -35.0618
rhand 7.67592 -54.8935
rfingers 7.12502
rthumb 32.9188 -81.9108
lclavicle 4.06338e-014 -1.04362e-015
lhumerus -62.8344 -48.6893 120.575
lradius 83.7054
lwrist 62.3449
lhand 14.745 4.55598
lfingers 7.12502
lthumb 39.6116 29.898
rfemur 0 0 0
rtibia 0
rfoot 0 0
rtoes 0
lfemur -2.59292 -5.06478 -13.2926
ltibia 22.2419
lfoot -23.6803 15.6713
ltoes -55.7899
484
root -0.544147 18.6652 5.7393 -0.0962645 0.246836 -1.38889
lowerback 5.46969 1.42325 -0.763047
upperback -3.07342 1.88993 0.807518
thorax -6.32315 0.983623 1.06379
lowerneck -7.8275 -3.30329 -3.97961
upperneck 43.117 -4.9215 1.94277
head 17.2753 -2.41342 0.820786
rclavicle 7.87917e-015 -1.79279e-014
rhumerus -70.4629 43.6129 -117.38
rradius 92.3445
rwrist -29.4632
rhand 6.62729 -51.0316
rfingers 7.12502
rthumb 31.9209 -78.2534
lclavicle 7.87917e-015 -1.79279e-014
lhumerus -62.4447 -49.1887 120.587
lradius 82.9758
lwrist 62.0232
lhand 14.8107 4.3955
lfingers 7.12502
lthumb 39.6735 29.7192
rfemur 0 0 0
rtibia 0
rfoot 0 0
rtoes 0
lfemur -2.68433 -4.9615 -13.2889
ltibia 22.2721
lfoot -23.6044 15.6399
ltoes -55.7994
485
root -0.544775 18.6649 5.73595 -0.0916786 0.270842 -1.35787
lowerback 5.50946 1.40354 -0.766111
upperback -3.0446 1.8597 0.752443
thorax -6.31285 0.967321 1.01085
lowerneck -7.96402 -3.28939 -4.1138
upperneck 43.0007 -4.94859 2.16234
head 17.2585 -2.4169 0.937815
rclavicle 2.07031e-014 1.2424e-015
rhumerus -70.046 44.0588 -117.53
rradius 92.0407
rwrist -25.4837
rhand 6.1913 -48.1843
rfingers 7.12502
rthumb 31.5056 -75.4882
lclavicle 2.07031e-014 1.2424e-015
lhumerus -61.9458 -49.7056 120.655
lradius 82.1634
lwrist 61.8312
lhand 15.201 4.45189
lfingers 7.12502
lthumb 40.0408 29.6656
rfemur 0 0 0
rtibia 0
rfoot 0 0
rtoes 0
lfemur -2.71158 -4.96418 -13.3166
ltibia 22.28
lfoot -23.5936 15.6021
ltoes -55.7858
486
root -0.543693 18.6639 5.73103 -0.0898579 0.314206 -1.31684
lowerback 5.55299 1.37859 -0.821829
upperback -3.00372 1.8198 0.726779
thorax -6.29458 0.949098 1.01924
lowerneck -8.14064 -3.30495 -4.2515
upperneck 42.8996 -4.99443 2.32039
head 17.2599 -2.43604 1.02335
rclavicle -7.9079e-015 -7.20594e-015
rhumerus -69.6485 44.7583 -117.721
rradius 91.7256
rwrist -21.8751
rhand 6.92647 -46.1607
rfingers 7.12502
rthumb 32.2057 -73.3252
lclavicle -7.9079e-015 -7.20594e-015
lhumerus -61.3299 -50.1676 120.757
lradius 81.2086
lwrist 61.583
lhand 15.9173 4.70978
lfingers 7.12502
lthumb 40.7144 29.7163
rfemur 0 0 0
rtibia 0
rfoot 0 0
rtoes 0
lfemur -2.73787 -4.9525 -13.3534
ltibia 22.2741
lfoot -23.5269 15.5653
ltoes -55.8567
487
root -0.541802 18.6635 5.7262 -0.0483017 0.290599 -1.2905
lowerback 5.53283 1.37068 -0.889401
upperback -2.96963 1.80337 0.722376
thorax -6.24863 0.943424 1.05526
lowerneck -8.27702 -3.33861 -4.31192
upperneck 42.7441 -5.03612 2.35328
head 17.2105 -2.45801 1.03856
rclavicle 1.20358e-014 2.70844e-015
rhumerus -69.3188 45.6949 -118.077
rradius 91.2625
rwrist -17.8546
rhand 8.69737 -44.6765
rfingers 7.12502
rthumb 33.8898 -71.4847
lclavicle 1.20358e-014 2.70844e-015
lhumerus -60.7302 -50.5988 120.969
lradius 80.1149
lwrist 61.3911
lhand 16.6296 4.91893
lfingers 7.12502
lthumb 41.3833 29.7122
rfemur 0 0 0
rtibia 0
rfoot 0 0
rtoes 0
lfemur -2.79267 -4.86648 -13.3694
ltibia 22.2684
lfoot -23.4437 15.5142
ltoes -55.9129
488
root -0.540859 18.6636 5.72074 0.0130625 0.188172 -1.31588
lowerback 5.51281 1.37957 -0.880146
upperback -2.94649 1.81573 0.717279
thorax -6.21254 0.948791 1.04417
lowerneck -8.43861 -3.35855 -4.33502
upperneck 42.5789 -5.04342 2.3361
head 17.1567 -2.46619 1.0293
rclavicle 1.01349e-014 3.3048e-015
rhumerus -69.0188 46.8952 -118.563
rradius 90.7228
rwrist -13.5566
rhand 8.77958 -43.2636
rfingers 7.12502
rthumb 33.9679 -70.0545
lclavicle 1.01349e-014 3.3048e-015
lhumerus -60.3283 -51.0843 121.333
lradius 79.0499
lwrist 61.2411
lhand 16.6259 5.07986
lfingers 7.12502
lthumb 41.3798 29.8743
rfemur 0 0 0
rtibia 0
rfoot 0 0
rtoes 0
lfemur -2.87525 -4.85064 -13.3424
ltibia 22.3136
lfoot -23.559 15.5043
ltoes -55.7849
489
root -0.541396 18.665 5.71281 0.0727839 0.0939026 -1.32763
lowerback 5.55753 1.38722 -0.861027
upperback -2.92787 1.82539 0.686458
thorax -6.2171 0.951922 0.999463
lowerneck -8.7207 -3.373 -4.35308
upperneck 42.4652 -5.03969 2.31762
head 17.1631 -2.46761 1.01844
rclavicle -1.02032e-014 7.65321e-015
rhumerus -68.6662 48.1933 -118.995
rradius 90.3486
rwrist -10.3186
rhand 7.65924 -42.3637
rfingers 7.12502
rthumb 32.903 -69.3843
lclavicle -1.02032e-014 7.65321e-015
lhumerus -60.1421 -51.6044 121.803
lradius 78.0907
lwrist 60.9861
lhand 15.9282 5.03833
lfingers 7.12502
lthumb 40.7246 30.0416
rfemur 0 0 0
rtibia 0
rfoot 0 0
rtoes 0
lfemur -2.98835 -4.87688 -13.3308
ltibia 22.4013
lfoot -23.6698 15.5631
ltoes -55.7208
490
root -0.542084 18.6701 5.69647 0.270228 -0.253627 -1.66838
lowerback 5.5984 1.4501 -0.513577
upperback -2.97663 1.9406 0.727333
thorax -6.28438 0.995516 0.832905
lowerneck -9.05553 -3.36246 -4.31799
upperneck 42.3864 -5.01483 2.30684
head 17.2003 -2.45046 1.00429
rclavicle -2.54506e-014 -9.29318e-015
rhumerus -68.5137 49.4713 -119.538
rradius 90.281
rwrist -8.77992
rhand 7.34488 -42.2024
rfingers 7.12502
rthumb 32.6039 -69.2853
lclavicle -2.54506e-014 -9.29318e-015
lhumerus -60.1105 -51.9534 122.252
lradius 77.2869
lwrist 60.7604
lhand 15.2336 4.47009
lfingers 7.12502
lthumb 40.0715 29.6745
rfemur 0 0 0
rtibia 0
rfoot 0 0
rtoes 0
lfemur -3.2098 -4.81583 -12.9594
ltibia 22.4503
lfoot -23.737 15.8152
ltoes -55.7419
491
root -0.542419 18.6747 5.68149 0.461138 -0.68357 -1.9889
lowerback 5.63609 1.51207 -0.244325
upperback -3.00254 2.04969 0.789012
thorax -6.32827 1.03948 0.732831
lowerneck -9.43642 -3.32316 -4.23166
upperneck 42.2555 -4.93821 2.25059
head 17.2124 -2.40982 0.967827
rclavicle 1.38683e-014 4.07509e-015
rhumerus -68.6105 50.7678 -120.222
rradius 90.4464
rwrist -8.41392
rhand 7.3725 -42.4567
rfingers 7.12502
rthumb 32.6302 -69.5342
lclavicle 1.38683e-014 4.07509e-015
lhumerus -60.1172 -52.0328 122.57
lradius 76.7278
lwrist 60.68
lhand 14.8719 3.7012
lfingers 7.12502
lthumb 39.7311 29.0078
rfemur 0 0 0
rtibia 0
rfoot 0 0
rtoes 0
lfemur -3.37745 -4.73123 -12.6228
ltibia 22.4675
lfoot -23.8855 16.0515
ltoes -55.6319
492
root -0.543042 18.674 5.68065 0.381785 -0.605686 -1.59885
lowerback 5.75191 1.43627 -0.736451
upperback -2.87725 1.90124 0.705791
thorax -6.27365 0.984322 0.937243
lowerneck -9.86761 -3.27914 -4.07611
upperneck 41.9193 -4.82478 2.1007
head 17.1111 -2.3549 0.881194
rclavicle -1.57847e-014 -4.72114e-015
rhumerus -68.692 51.98 -120.745
rradius 90.7266
rwrist -8.32935
rhand 7.03917 -42.5732
rfingers 7.12502
rthumb 32.313 -69.7159
lclavicle -1.57847e-014 -4.72114e-015
lhumerus -60.0648 -51.9734 122.82
lradius 76.2951
lwrist 60.689
lhand 14.8306 2.99859
lfingers 7.12502
lthumb 39.6922 28.3168
rfemur 0 0 0
rtibia 0
rfoot 0 0
rtoes 0
lfemur -3.32635 -4.69532 -13.0518
ltibia 22.4833
lfoot -23.8366 15.9576
ltoes -55.6389
493
root -0.544609 18.6729 5.67574 0.328242 -0.499947 -1.31694
lowerback 5.93993 1.36606 -1.11243
upperback -2.76072 1.77018 0.643799
thorax -6.26545 0.933004 1.09533
lowerneck -10.3208 -3.23227 -3.79464
upperneck 41.3912 -4.70632 1.87832
head 16.9012 -2.2882 0.74035
rclavicle -1.59587e-014 -5.26779e-015
rhumerus -68.9148 52.9506 -121.247
rradius 91.2136
rwrist -8.12882
rhand 5.93224 -42.6414
rfingers 7.12502
rthumb 31.2587 -69.9932
lclavicle -1.59587e-014 -5.26779e-015
lhumerus -60.1319 -51.892 123.101
lradius 75.9746
lwrist 60.774
lhand 15.3937 2.79229
lfingers 7.12502
lthumb 40.2221 27.951
rfemur 0 0 0
rtibia 0
rfoot 0 0
rtoes 0
lfemur -3.31102 -4.69512 -13.3526
ltibia 22.4648
lfoot -23.7118 15.9157
ltoes -55.7789
494
root -0.545475 18.6747 5.66086 0.440965 -0.709501 -1.40737
lowerback 6.15186 1.38711 -1.07653
upperback -2.71494 1.79956 0.645306
thorax -6.3385 0.94589 1.069
lowerneck -10.881 -3.19418 -3.51219
upperneck 40.8096 -4.62551 1.71527
head 16.6982 -2.22935 0.619321
rclavicle 5.19946e-015 8.54774e-015
rhumerus -69.3333 53.7305 -121.842
rradius 91.9287
rwrist -7.96068
rhand 4.60292 -43.0403
rfingers 7.12502
rthumb 29.9912 -70.6291
lclavicle 5.19946e-015 8.54774e-015
lhumerus -60.4611 -51.8385 123.425
lradius 75.91
lwrist 60.9287
lhand 16.4061 3.33544
lfingers 7.12502
lthumb 41.1736 28.1964
rfemur 0 0 0
rtibia 0
rfoot 0 0
rtoes 0
lfemur -3.42487 -4.63545 -13.2502
ltibia 22.4228
lfoot -23.7049 16.0286
ltoes -55.7386
